# Hexagonal prism: hexagon caps (n-gon fan triangulation), quad sides,
# no vn lines (computed smooth normals), mixed index forms.
v 0.5 0.4 0
v 0.25 0.4 0.433013
v -0.25 0.4 0.433013
v -0.5 0.4 0
v -0.25 0.4 -0.433013
v 0.25 0.4 -0.433013
v 0.5 -0.4 0
v 0.25 -0.4 0.433013
v -0.25 -0.4 0.433013
v -0.5 -0.4 0
v -0.25 -0.4 -0.433013
v 0.25 -0.4 -0.433013
vt 0 0
vt 1 0
vt 1 1
vt 0 1

f 1/1 2/2 3/3 4/4 5/1 6/2
f 12 11 10 9 8 7
f 1/1/ 7/2/ 8/3/ 2/4/
f 2//1 8//1 9//1 3//1
f 3 9 10 4
f 4/1 10/2 11/3 5/4
f 5 11 12 6
f 6 12 7 1
